<svg id="line" xmlns="http://www.w3.org/2000/svg" viewBox="0 0 64 64"><defs><style>.cls-1{fill:#231f20;}</style></defs><path class="cls-1" d="M59.80371,13.794A1.00225,1.00225,0,0,0,59,13.38965H17.21338l-.51123-3.27A5.31933,5.31933,0,0,0,11.4209,5.60107H5a1.0002,1.0002,0,0,0,.00008,2l6.42082,0a3.32838,3.32838,0,0,1,3.30469,2.82764L19.2207,39.18164a5.41393,5.41393,0,0,0,5.375,4.6001H53.4541a1,1,0,0,0,0-2H24.5957a3.42254,3.42254,0,0,1-3.39843-2.90869l-.73505-4.70166H48.68457a7.26081,7.26081,0,0,0,6.90723-5.106L59.957,14.68018A1.00109,1.00109,0,0,0,59.80371,13.794Zm-6.126,14.69043a5.246,5.246,0,0,1-4.99316,3.687H20.1496L17.526,15.38965H57.65137Z"/><path class="cls-1" d="M26.085,47.27393c-7.35122.23341-7.3495,10.89268.00012,11.125C33.43619,58.16551,33.43446,47.50624,26.085,47.27393Zm0,9.125a3.56272,3.56272,0,0,1,.00011-7.125A3.56272,3.56272,0,0,1,26.085,56.39893Z"/><path class="cls-1" d="M45.8252,47.27393c-7.35123.23341-7.34951,10.89268.00012,11.125C53.17642,58.16551,53.1747,47.50624,45.8252,47.27393Zm0,9.125a3.56272,3.56272,0,0,1,.0001-7.125A3.56272,3.56272,0,0,1,45.8252,56.39893Z"/></svg>