<?xml version="1.0" encoding="UTF-8" standalone="no"?>
<svg
   xmlns:dc="http://purl.org/dc/elements/1.1/"
   xmlns:cc="http://creativecommons.org/ns#"
   xmlns:rdf="http://www.w3.org/1999/02/22-rdf-syntax-ns#"
   xmlns:svg="http://www.w3.org/2000/svg"
   xmlns="http://www.w3.org/2000/svg"
   width="400mm"
   height="400mm"
   viewBox="0 0 1417.3228 1417.3228"
   id="svg2"
   version="1.1">
  <defs
     id="defs4" />
  <metadata
     id="metadata7">
    <rdf:RDF>
      <cc:Work
         rdf:about="">
        <dc:format>image/svg+xml</dc:format>
        <dc:type
           rdf:resource="http://purl.org/dc/dcmitype/StillImage" />
        <dc:title></dc:title>
      </cc:Work>
    </rdf:RDF>
  </metadata>
  <g
     id="layer1"
     transform="translate(0,364.96063)">
    <path
       id="path4136"
       d="m 475.08789,-165.36719 c -16.34668,0 -32.42102,1.2465 -48.12109,3.64453 -151.85977,23.19511 -268.18748,154.6118357 -268.1875,312.66407 l 0,0.14257 0.002,0.14258 c 0.008,0.68354 0.0192,0.96653 0.0176,0.85156 l -0.002,-0.52929 c -1.03731,146.38538 75.32894,262.25254 178.74218,368.86719 103.33447,106.53342 234.70634,206.37559 352.9668,324.55078 l 17.43164,18.87304 c 0.71902,0.87995 0.72122,0.83419 1.44727,0 L 726.81643,844.9668 C 845.07685,726.79161 976.44873,626.94944 1079.7832,520.41602 1183.1965,413.80137 1259.5628,297.93421 1258.5254,151.54883 l 0,0.17578 c 0,0.62757 0.01,0.432 0.016,-0.59375 l 0,-0.0937 0,-0.0957 c 0,-158.0515764 -116.3267,-289.46815 -268.18558,-312.66407 l -0.002,0 c -2.52857,-0.38636 -5.07935,-0.74536 -7.65039,-1.07422 l -0.0605,-0.008 c -2.33312,-0.30493 -2.06633,-0.27078 -0.17383,-0.0215 -2.58565,-0.32867 -5.19708,-0.62948 -7.83593,-0.89844 0.35891,0.0407 -2.27781,-0.23465 -0.0527,-0.004 l -0.0254,-0.004 -0.0273,-0.002 c -2.6133,-0.26537 -5.2418,-0.50102 -7.88477,-0.70312 -0.55267,-0.0416 -2.48527,-0.19143 -0.0742,-0.004 l -0.0215,-0.002 -0.0195,-0.002 c -2.62994,-0.2001 -5.28197,-0.3695 -7.95508,-0.50586 -2.42021,-0.13069 -1.6418,-0.0855 -0.0977,-0.006 l -0.0176,0 c -2.65871,-0.13463 -5.33257,-0.23799 -8.01953,-0.30664 -0.69599,-0.0187 -1.11833,-0.0276 -0.0547,0 l -0.008,-0.002 -0.006,0 c -2.7204,-0.0689 -5.43829,-0.10157 -8.15234,-0.10157 l -0.0156,0 -0.0156,0 c -6.25917,0.008 -12.48695,0.20426 -18.67578,0.57813 -82.44774,4.98056 -159.50911,42.10652 -214.85156,102.962888 -55.33186,-60.844218 -132.37511,-97.967188 -214.80469,-102.958988 -0.0122,0.001 -0.22534,-0.0156 -0.0645,-0.004 -0.006,-3.9e-4 -0.0131,3.9e-4 -0.0195,0 -3.03972,-0.18386 -6.09766,-0.32714 -9.17578,-0.42383 l -0.0449,-0.002 c -0.19742,-0.006 -1.03279,-0.0322 -0.0664,-0.002 l -0.004,0 -0.004,0 c -3.12224,-0.0968 -6.23998,-0.14576 -9.35351,-0.15039 l -1.0625,49.98047 1.02734,-49.98047 z m -0.0117,50 c 0.004,10e-6 0.008,0 0.0117,0 2.62416,0.004 5.23335,0.0467 7.82617,0.12696 0.3689,0.0117 -0.18982,-0.008 -0.0176,-0.002 l 0.0312,0.002 0.0176,0 c 2.60171,0.0809 5.20929,0.20301 7.82422,0.36132 l 0.0352,0.002 0.0332,0.002 c 78.23263,4.73925 150.71769,43.756274 197.74414,107.1425781 L 708.66016,19.330078 728.73828,-7.7324219 C 775.77378,-71.130919 848.27744,-110.15193 926.52734,-114.87891 c 5.21506,-0.31504 10.44823,-0.48127 15.69141,-0.48828 2.30637,0 4.59354,0.0286 6.86328,0.0859 0.007,1.8e-4 0.0144,-1.8e-4 0.0215,0 l 0.0156,0 c 2.26769,0.0576 4.53621,0.14323 6.80078,0.25781 l 0.0254,0.002 0.0156,0 c 2.23553,0.11344 4.47277,0.25728 6.71875,0.42773 2.349,0.18606 3.58032,0.29186 -0.0742,-0.008 l 0.0723,0.006 0.0723,0.006 c 2.24465,0.17092 4.48843,0.37213 6.72852,0.59961 l -0.0527,-0.006 0.0664,0.006 c 2.21655,0.22523 4.43927,0.48158 6.67383,0.76562 l 0.0371,0.004 0.0254,0.002 0.0117,0.002 c 2.18467,0.27835 4.37306,0.58507 6.56446,0.91992 l 0.002,0 c 127.78963,19.51863 225.69593,129.633152 225.73433,263.16016 0,-0.27316 -0.014,-0.1568 -0.014,0.86133 l 0,0.0898 0,0.0879 c 0.9139,128.95423 -65.1686,231.15782 -164.6328,333.70118 -94.66542,97.59607 -218.54269,193.41163 -334.97064,307.0625 l -0.26172,-0.26172 -0.26367,0.26367 C 591.9703,679.01686 468.09533,583.19975 373.42969,485.60352 273.96548,383.06016 207.88114,280.85658 208.79492,151.90234 l 0.002,-0.26562 -0.004,-0.26367 c -0.007,-0.47043 -0.01,-0.48997 -0.0117,-0.52735 0.047,-133.519056 97.9504,-243.624812 225.73437,-263.14258 13.21634,-2.01866 26.75648,-3.06971 40.56055,-3.07031 z"
       style="color:#000000;font-style:normal;font-variant:normal;font-weight:normal;font-stretch:normal;font-size:medium;line-height:normal;font-family:sans-serif;text-indent:0;text-align:start;text-decoration:none;text-decoration-line:none;text-decoration-style:solid;text-decoration-color:#000000;letter-spacing:normal;word-spacing:normal;text-transform:none;direction:ltr;block-progression:tb;writing-mode:lr-tb;baseline-shift:baseline;text-anchor:start;white-space:normal;clip-rule:nonzero;display:inline;overflow:visible;visibility:visible;opacity:1;isolation:auto;mix-blend-mode:normal;color-interpolation:sRGB;color-interpolation-filters:linearRGB;solid-color:#000000;solid-opacity:1;fill:#000000;fill-opacity:1;fill-rule:evenodd;stroke:none;stroke-width:49.99999619;stroke-linecap:butt;stroke-linejoin:miter;stroke-miterlimit:4;stroke-dasharray:none;stroke-dashoffset:0;stroke-opacity:1;color-rendering:auto;image-rendering:auto;shape-rendering:auto;text-rendering:auto;enable-background:accumulate" />
  </g>
</svg>
